<svg width="40" height="40" viewBox="0 0 40 40" fill="none" xmlns="http://www.w3.org/2000/svg">
<path d="M24.4149 3.33333V0.326668L14.1666 6.93C14.8983 7.955 15.3199 9.12167 15.5133 10.3467C15.9799 13.2683 15.1516 16.5267 14.1666 19.0333C10.3483 27.4433 10.7666 34.255 14.9083 37.075C15.2599 37.3133 15.6583 37.5333 16.1049 37.72C16.9983 38.0933 18.0899 38.3333 19.4133 38.3333C24.5433 38.3333 27.2699 34.1533 26.4916 29.2883C26.1783 27.3383 25.4416 25.5783 24.7716 23.9733C23.7683 21.5733 22.9116 19.5233 23.8416 17.7233C23.9661 17.4789 24.0827 17.24 24.1916 17.0067C23.6649 19.7217 24.8449 21.3767 26.2583 23.3633C27.2499 24.7517 28.3549 26.3017 29.0716 28.49C30.2999 32.2383 29.5416 35.8733 27.1549 38.1483C30.6783 38.31 33.4016 37.4117 35.3216 35.6517C37.8983 33.2883 38.5866 29.765 38.2483 26.5717C37.7433 21.785 34.0349 17.435 30.8983 14.645C27.3649 11.5017 24.4149 8.83667 24.4149 3.33333Z" fill="url(#paint0_linear_4239_431)"/>
<path d="M12.1251 14.1333C11.4851 14.6 10.8334 15.0283 10.1417 15.4833C9.53341 15.8833 8.89175 16.305 8.19675 16.7933C6.59675 17.92 4.94341 19.2717 3.70175 21.1333C2.44008 23.0267 1.66675 25.355 1.66675 28.3367C1.66675 33.5033 4.55175 38.3333 11.0801 38.3333H11.2884C9.31508 36.205 8.36508 33.35 8.22175 30.305C8.04675 26.5333 9.07008 22.2217 11.0934 17.7383C11.5351 16.605 11.9101 15.3617 12.1267 14.1317" fill="url(#paint1_linear_4239_431)"/>
<defs>
<linearGradient id="paint0_linear_4239_431" x1="24.9325" y1="0.326668" x2="24.9325" y2="38.3333" gradientUnits="userSpaceOnUse">
<stop stop-color="#E6EDFE"/>
<stop offset="1" stop-color="#83A7FC"/>
</linearGradient>
<linearGradient id="paint1_linear_4239_431" x1="6.89675" y1="14.1317" x2="6.89675" y2="38.3333" gradientUnits="userSpaceOnUse">
<stop stop-color="#E6EDFE"/>
<stop offset="1" stop-color="#83A7FC"/>
</linearGradient>
</defs>
</svg>
