<svg width="12" height="12" viewBox="0 0 12 12" fill="none" xmlns="http://www.w3.org/2000/svg">
<path d="M1.2002 3.30002C1.2002 3.06133 1.29502 2.83241 1.4638 2.66363C1.63258 2.49485 1.8615 2.40002 2.1002 2.40002C2.33889 2.40002 2.56781 2.49485 2.73659 2.66363C2.90537 2.83241 3.0002 3.06133 3.0002 3.30002V8.70003C3.00012 8.93872 2.90522 9.16761 2.73638 9.33633C2.56754 9.50506 2.33859 9.59981 2.0999 9.59973C1.8612 9.59965 1.63231 9.50475 1.46359 9.33591C1.29486 9.16707 1.20012 8.93812 1.2002 8.69943V3.30002ZM9.0002 3.30002V8.70003C9.0002 8.93872 9.09502 9.16764 9.2638 9.33642C9.43258 9.5052 9.6615 9.60003 9.9002 9.60003C10.1389 9.60003 10.3678 9.5052 10.5366 9.33642C10.7054 9.16764 10.8002 8.93872 10.8002 8.70003V3.30002C10.8002 3.06133 10.7054 2.83241 10.5366 2.66363C10.3678 2.49485 10.1389 2.40002 9.9002 2.40002C9.6615 2.40002 9.43258 2.49485 9.2638 2.66363C9.09502 2.83241 9.0002 3.06133 9.0002 3.30002ZM8.4002 8.40003V3.60002H3.6002V8.40003H8.4002Z" fill="white"/>
</svg>
